# xmcd CD database file
#
# Track frame offsets:
#	150
#	21445
#	41615
#
# Disc length: 809 seconds
#
# Revision: 0
# Processed by: cddbd v1.5.1PL0 Copyright (c) Steve Scherf et al.
# Submitted via: CDex 1.51
#
DISCID=1f032703
DTITLE=SOULSBERRY - smash
DYEAR=2001
DGENRE=Rock
TTITLE0=smash
TTITLE1=today
TTITLE2=beautiful day
EXTD=YEAR: 2001
EXTT0=
EXTT1=
EXTT2=
PLAYORDER=
